<svg xmlns="http://www.w3.org/2000/svg" xmlns:xlink="http://www.w3.org/1999/xlink" viewBox="0 0 1755.76 319.9"><defs><style>.cls-1{fill:#333;}.cls-2{fill:#a1e0b3;}.cls-3{fill:url(#linear-gradient);}.cls-4{fill:#66c;}.cls-5{fill:#9cf;}.cls-6{fill:url(#linear-gradient-2);}.cls-7{fill:#def0b9;}.cls-8{fill:none;}</style><linearGradient id="linear-gradient" x1="-332.02" y1="239" x2="-206.76" y2="239" gradientTransform="translate(529.4 308.27)" gradientUnits="userSpaceOnUse"><stop offset="0.03" stop-color="#9cf"/><stop offset="1" stop-color="#66c"/></linearGradient><linearGradient id="linear-gradient-2" x1="-286.21" y1="128.11" x2="-160.95" y2="128.11" gradientTransform="translate(372.7 373.34)" gradientUnits="userSpaceOnUse"><stop offset="0.06" stop-color="#def0b9"/><stop offset="0.99" stop-color="#a1e0b3"/></linearGradient></defs><g id="text"><path class="cls-1" d="M410.57,396V583.66h91v21.72H386V396Z" transform="translate(-62.96 -351.6)"/><rect class="cls-1" x="486.24" y="97.31" width="24.28" height="156.47"/><path class="cls-1" d="M683.53,382.48c12,0,28.58,4.09,36.88,8.82l-6.76,17.63c-8-3.78-19.06-6.93-29.51-6.93C664.47,402,658,414,658,434.74v14.48h48.26v19.21H658V671.5H634.35V435.37C634.35,413.33,639.26,382.48,683.53,382.48Z" transform="translate(-62.96 -351.6)"/><path class="cls-1" d="M730.56,529.51c0-46.6,25.51-85,71.31-85,28.59,0,44.88,15.74,44.88,39,0,51.32-63.63,55.41-92.21,54.47,1.23,25.5,13.21,52.26,45.49,52.26,20.9,0,33.81-10.07,39.35-14.48l9.22,16.68c-7.69,6.62-25.21,17.32-49.8,17.32C750.85,609.79,730.56,576.42,730.56,529.51ZM824,486.38c0-14.8-9.53-23.62-23.37-23.62-32.89,0-45.49,31.8-46.41,56.36C770.83,520.38,824,518.17,824,486.38Z" transform="translate(-62.96 -351.6)"/><path class="cls-1" d="M940.81,396l59.33,153.32h.31L1061.31,396h30.12l11.07,209.36h-23.36l-9.22-173.79h-.31L1010,579.88h-20.6L931.9,432.22h-.31l-9.53,173.16H898.7l12-209.36Z" transform="translate(-62.96 -351.6)"/><path class="cls-1" d="M1152.92,533.92c0-55.73,25.82-89.42,76.85-89.42,9.52,0,31,2.52,50.71,10.08V578l2.46,27.39h-21.51l-2.15-18.57-.93-.32c-8.3,12.6-22.44,23.62-45.49,23.62C1167.37,610.11,1152.92,575.47,1152.92,533.92Zm103.9,21.72V469.37c-5.54-2.83-17.83-5.66-30.74-5.66-36.89,0-49.49,30.85-49.49,71.15,0,27.08,8,56,40.27,56C1243,590.9,1256.82,573.27,1256.82,555.64Z" transform="translate(-62.96 -351.6)"/><path class="cls-1" d="M1396.06,444.5c48.57,0,69.78,27.71,69.78,80.92,0,54.78-23.67,84.37-62.09,84.37-15.37,0-29.51-5-39.35-12V671.5h-24V454C1361.63,447.65,1380.69,444.5,1396.06,444.5Zm45.8,84.38c0-33.69-8-63.91-46.41-63.91a97.4,97.4,0,0,0-31,5.35V575.16c8.3,8.5,24.59,14.17,37.81,14.17C1424.65,589.33,1441.86,572.64,1441.86,528.88Z" transform="translate(-62.96 -351.6)"/><path class="cls-1" d="M1574,444.5c48.56,0,69.77,27.71,69.77,80.92,0,54.78-23.66,84.37-62.09,84.37-15.37,0-29.51-5-39.34-12V671.5h-24V454C1539.61,447.65,1558.67,444.5,1574,444.5Zm45.8,84.38c0-33.69-8-63.91-46.42-63.91a97.29,97.29,0,0,0-31,5.35V575.16c8.3,8.5,24.59,14.17,37.81,14.17C1602.62,589.33,1619.84,572.64,1619.84,528.88Z" transform="translate(-62.96 -351.6)"/><path class="cls-1" d="M1688.69,533.92c0-55.73,25.82-89.42,76.85-89.42,9.53,0,31,2.52,50.72,10.08V578l2.46,27.39H1797.2l-2.15-18.57-.92-.32c-8.3,12.6-22.44,23.62-45.5,23.62C1703.14,610.11,1688.69,575.47,1688.69,533.92Zm103.9,21.72V469.37c-5.53-2.83-17.83-5.66-30.74-5.66-36.89,0-49.49,30.85-49.49,71.15,0,27.08,8,56,40.27,56C1778.76,590.9,1792.59,573.27,1792.59,555.64Z" transform="translate(-62.96 -351.6)"/></g><g id="dot"><rect class="cls-2" x="544.95" y="388.28" width="32.74" height="32.72" rx="16.36" transform="translate(93.72 614.36) rotate(-90)"/></g><g id="just_logo" data-name="just logo"><rect class="cls-3" x="197.38" y="530.9" width="125.26" height="32.72" rx="16.36" transform="translate(-350.21 455.67) rotate(-90)"/><rect class="cls-4" x="243.64" y="438.6" width="32.74" height="32.72" rx="16.36" transform="translate(-257.9 363.36) rotate(-90)"/><rect class="cls-4" x="243.64" y="391.81" width="32.74" height="32.72" rx="16.36" transform="translate(-211.12 316.58) rotate(-90)"/><rect class="cls-5" x="243.64" y="623.58" width="32.74" height="32.72" rx="16.36" transform="translate(-442.89 548.35) rotate(-90)"/><rect class="cls-6" x="86.49" y="485.09" width="125.26" height="32.72" rx="16.36" transform="translate(-415.28 298.97) rotate(-90)"/><rect class="cls-7" x="132.75" y="577.1" width="32.74" height="32.72" rx="16.36" transform="translate(-507.29 390.98) rotate(-90)"/><rect class="cls-2" x="132.75" y="393.08" width="32.74" height="32.72" rx="16.36" transform="translate(-323.27 206.96) rotate(-90)"/><rect class="cls-1" x="187.78" y="439.04" width="32.74" height="32.72" rx="16.36" transform="translate(-314.2 307.95) rotate(-90)"/><rect class="cls-1" x="187.78" y="484.69" width="32.74" height="32.72" rx="16.36" transform="translate(-359.85 353.6) rotate(-90)"/><rect class="cls-7" x="132.66" y="622.93" width="32.74" height="32.72" rx="16.36" transform="translate(-553.21 436.73) rotate(-90)"/><rect class="cls-4" x="297.84" y="531.16" width="32.74" height="32.72" rx="16.36" transform="matrix(0, -1, 1, 0, -296.27, 510.14)"/><line class="cls-8" x1="62.06" y1="204.67" x2="51.12" y2="204.67"/><line class="cls-8" x1="25.64" y1="204.67" y2="204.67"/><path class="cls-1" d="M351,367.25v7H120.39a15.63,15.63,0,0,0-15.66,15.65V623.37H94.91a15.63,15.63,0,0,1-15.66-15.65V367.25A15.63,15.63,0,0,1,94.91,351.6H335.37A15.63,15.63,0,0,1,351,367.25Z" transform="translate(-62.96 -351.6)"/></g></svg>