<svg id="just_logo" data-name="just logo" xmlns="http://www.w3.org/2000/svg" xmlns:xlink="http://www.w3.org/1999/xlink" viewBox="0 0 288.07 304.71"><defs><style>.cls-1{fill:url(#linear-gradient);}.cls-2{fill:#66c;}.cls-3{fill:#9cf;}.cls-4{fill:url(#linear-gradient-2);}.cls-5{fill:#def0b9;}.cls-6{fill:#a1e0b3;}.cls-7{fill:#333;}.cls-8{fill:none;}</style><linearGradient id="linear-gradient" x1="-332.02" y1="239" x2="-206.76" y2="239" gradientTransform="translate(529.4 308.27)" gradientUnits="userSpaceOnUse"><stop offset="0.03" stop-color="#9cf"/><stop offset="1" stop-color="#66c"/></linearGradient><linearGradient id="linear-gradient-2" x1="-286.21" y1="128.11" x2="-160.95" y2="128.11" gradientTransform="translate(372.7 373.34)" gradientUnits="userSpaceOnUse"><stop offset="0.06" stop-color="#def0b9"/><stop offset="0.99" stop-color="#a1e0b3"/></linearGradient></defs><rect class="cls-1" x="197.38" y="530.9" width="125.26" height="32.72" rx="16.36" transform="translate(-350.21 455.67) rotate(-90)"/><rect class="cls-2" x="243.64" y="438.6" width="32.74" height="32.72" rx="16.36" transform="translate(-257.9 363.36) rotate(-90)"/><rect class="cls-2" x="243.64" y="391.81" width="32.74" height="32.72" rx="16.36" transform="translate(-211.12 316.58) rotate(-90)"/><rect class="cls-3" x="243.64" y="623.58" width="32.74" height="32.72" rx="16.36" transform="translate(-442.89 548.35) rotate(-90)"/><rect class="cls-4" x="86.49" y="485.09" width="125.26" height="32.72" rx="16.36" transform="translate(-415.28 298.97) rotate(-90)"/><rect class="cls-5" x="132.75" y="577.1" width="32.74" height="32.72" rx="16.36" transform="translate(-507.29 390.98) rotate(-90)"/><rect class="cls-6" x="132.75" y="393.08" width="32.74" height="32.72" rx="16.36" transform="translate(-323.27 206.96) rotate(-90)"/><rect class="cls-7" x="187.78" y="439.04" width="32.74" height="32.72" rx="16.36" transform="translate(-314.2 307.95) rotate(-90)"/><rect class="cls-7" x="187.78" y="484.69" width="32.74" height="32.72" rx="16.36" transform="translate(-359.85 353.6) rotate(-90)"/><rect class="cls-5" x="132.66" y="622.93" width="32.74" height="32.72" rx="16.36" transform="translate(-553.21 436.73) rotate(-90)"/><rect class="cls-2" x="297.84" y="531.16" width="32.74" height="32.72" rx="16.36" transform="matrix(0, -1, 1, 0, -296.27, 510.14)"/><line class="cls-8" x1="62.06" y1="204.67" x2="51.12" y2="204.67"/><line class="cls-8" x1="25.64" y1="204.67" y2="204.67"/><path class="cls-7" d="M351,367.25v7H120.39a15.63,15.63,0,0,0-15.66,15.65V623.37H94.91a15.63,15.63,0,0,1-15.66-15.65V367.25A15.63,15.63,0,0,1,94.91,351.6H335.37A15.63,15.63,0,0,1,351,367.25Z" transform="translate(-62.96 -351.6)"/></svg>