<?xml version="1.0" encoding="utf-8"?>
<!-- Generator: Adobe Illustrator 25.3.1, SVG Export Plug-In . SVG Version: 6.00 Build 0)  -->
<svg version="1.1" id="Layer_1" xmlns="http://www.w3.org/2000/svg" xmlns:xlink="http://www.w3.org/1999/xlink" x="0px" y="0px"
	 viewBox="0 0 64 64" style="enable-background:new 0 0 64 64;" xml:space="preserve">
<style type="text/css">
	.st0{fill:url(#SVGID_1_);}
	.st1{fill:#6666CC;}
	.st2{fill:#99CCFF;}
	.st3{fill:url(#SVGID_2_);}
	.st4{fill:#DEF0B9;}
	.st5{fill:#A1E0B3;}
	.st6{fill:#333333;}
	.st7{fill:none;}
	.st8{fill:#333333;stroke:#333333;stroke-width:2;stroke-miterlimit:10;}
</style>
<linearGradient id="SVGID_1_" gradientUnits="userSpaceOnUse" x1="-1212.0221" y1="443.4716" x2="-1187.2832" y2="443.4716" gradientTransform="matrix(-4.821020e-10 -1 1 -4.821020e-10 -398.9865 -1158.1296)">
	<stop  offset="0.0323" style="stop-color:#99CCFF"/>
	<stop  offset="1" style="stop-color:#6666CC"/>
</linearGradient>
<path class="st0" d="M48.72,33.38l0,16.28c0,2.34-1.89,4.23-4.23,4.23h0c-2.34,0-4.23-1.89-4.23-4.23l0-16.28
	c0-2.34,1.89-4.23,4.23-4.23h0C46.82,29.15,48.72,31.05,48.72,33.38z"/>
<path class="st1" d="M48.65,23.58L48.65,23.58c0,2.37-1.91,4.28-4.28,4.28h0c-2.36,0-4.28-1.91-4.28-4.28v-0.01
	c0-2.36,1.91-4.28,4.28-4.28h0C46.74,19.3,48.65,21.22,48.65,23.58z"/>
<path class="st1" d="M48.65,13.23L48.65,13.23c0,2.37-1.91,4.28-4.28,4.28h0c-2.36,0-4.28-1.91-4.28-4.28v-0.01
	c0-2.36,1.91-4.28,4.28-4.28h0C46.74,8.95,48.65,10.87,48.65,13.23z"/>
<path class="st2" d="M48.65,59.72L48.65,59.72c0,2.37-1.91,4.28-4.28,4.28h0c-2.36,0-4.28-1.91-4.28-4.28v-0.01
	c0-2.36,1.91-4.28,4.28-4.28h0C46.74,55.44,48.65,57.36,48.65,59.72z"/>
<linearGradient id="SVGID_2_" gradientUnits="userSpaceOnUse" x1="-1202.0341" y1="419.0238" x2="-1177.2952" y2="419.0238" gradientTransform="matrix(-4.821020e-10 -1 1 -4.821020e-10 -398.9865 -1158.1296)">
	<stop  offset="0.0594" style="stop-color:#DEF0B9"/>
	<stop  offset="0.9856" style="stop-color:#A1E0B3"/>
</linearGradient>
<path class="st3" d="M24.27,23.4l0,16.28c0,2.34-1.89,4.23-4.23,4.23h0c-2.34,0-4.23-1.89-4.23-4.23l0-16.28
	c0-2.34,1.89-4.23,4.23-4.23h0C22.37,19.17,24.27,21.06,24.27,23.4z"/>
<path class="st4" d="M24.36,49.45L24.36,49.45c0,2.37-1.91,4.28-4.28,4.28h0c-2.36,0-4.28-1.91-4.28-4.28v-0.01
	c0-2.36,1.91-4.28,4.28-4.28h0C22.45,45.17,24.36,47.08,24.36,49.45z"/>
<path class="st5" d="M24.36,13.56L24.36,13.56c0,2.37-1.91,4.28-4.28,4.28h0c-2.36,0-4.28-1.91-4.28-4.28v-0.01
	c0-2.36,1.91-4.28,4.28-4.28h0C22.45,9.28,24.36,11.2,24.36,13.56z"/>
<path class="st6" d="M36.54,23.69L36.54,23.69c0,2.37-1.91,4.28-4.28,4.28h0c-2.36,0-4.28-1.91-4.28-4.28v-0.01
	c0-2.36,1.91-4.28,4.28-4.28h0C34.62,19.42,36.54,21.33,36.54,23.69z"/>
<path class="st6" d="M36.54,33.44L36.54,33.44c0,2.37-1.91,4.28-4.28,4.28h0c-2.36,0-4.28-1.91-4.28-4.28v-0.01
	c0-2.36,1.91-4.28,4.28-4.28h0C34.62,29.16,36.54,31.08,36.54,33.44z"/>
<path class="st4" d="M24.34,59.55L24.34,59.55c0,2.37-1.91,4.28-4.28,4.28h0c-2.36,0-4.28-1.91-4.28-4.28v-0.01
	c0-2.36,1.91-4.28,4.28-4.28h0C22.42,55.27,24.34,57.19,24.34,59.55z"/>
<path class="st1" d="M60,49.66L60,49.66c0,2.37-1.91,4.28-4.28,4.28h0c-2.36,0-4.28-1.91-4.28-4.28v-0.01
	c0-2.36,1.91-4.28,4.28-4.28h0C58.09,45.38,60,47.3,60,49.66z"/>
<line class="st7" x1="15.21" y1="44.24" x2="13.05" y2="44.24"/>
<line class="st7" x1="8.02" y1="44.24" x2="2.96" y2="44.24"/>
<path class="st8" d="M59.85,4.09v1.38H14.3c-1.71,0-3.09,1.38-3.09,3.09v46.11H9.27c-1.71,0-3.09-1.38-3.09-3.09V4.09
	C6.17,2.38,7.56,1,9.27,1h47.49C58.47,1,59.85,2.38,59.85,4.09z"/>
</svg>
